<svg xmlns="http://www.w3.org/2000/svg" width="256" height="256" viewBox="0 0 256 256"><path d="M59.7 164.7a32.5 32.5 0 0 0-7.6.9c0 .3.3.6.8 1l2 1 2.6 1 2.8.8 2.4.6 1.4.2h2.1l2.5-.4 2.3-.8a4.4 4.4 0 0 0 1.7-1.4 27.5 27.5 0 0 0-6.3-2.2 31.2 31.2 0 0 0-6.7-.7z"/><path d="M128 0a126 126 0 1 0 126 126A126 126 0 0 0 128 0zm82.2 69.5v.3a7 7 0 0 1-.1 1.4l-.3 2.1-.3 2.1-.2 1.3a9.8 9.8 0 0 0-.9 1.8l-.6 2-.6 2a15.9 15.9 0 0 1-.7 1.9 30.4 30.4 0 0 1-1.7 3 21 21 0 0 0-1.6 3l-19.8 27.5-.2.5-.3.3-.3.3-.4.5-1.6 2.2-2 2.9-2.2 3.2-2 3.2a24.2 24.2 0 0 0-1.4 2.9 6.8 6.8 0 0 0-.5 2.3c0 .3-.2.5-.2.7s.2.4.2.7c-.2 0-.3.1-.3.4s.1.4.3.4v10.1a2.7 2.7 0 0 1-.2 1c-.2.4-.2.7-.4 1.2s-.5.8-.6 1.2-.4.8-.4 1.1v1.6a.4.4 0 0 1 0 .4l-.4.8-.7.8c-.2.2-.5.4-.5.4v.4c0 .1.7.2.8.4s.9.3.9.4v2.8a23.1 23.1 0 0 1-.6 3.5c-.2 1.2-.6 2.3-.8 3.5s-.5 2.3-.7 3.5a22.5 22.5 0 0 0-.3 3.5 60.9 60.9 0 0 0 .3 6.2 41.5 41.5 0 0 0 1.1 6.1 31.7 31.7 0 0 0 2.1 5.7 23.2 23.2 0 0 0 3.4 5.2l-1.3.8-1.7.7-1.7.5h-1.9l-1-.2-1.2-.3-1-.2h-.7l-.7-.3-.6-.5a1.3 1.3 0 0 1-.3-.7 29.6 29.6 0 0 0 .1-4c0-1.4-.1-2.8-.3-4.2s-.3-2.8-.5-4.2-.4-2.7-.5-4l-.2-.6a1.5 1.5 0 0 0-.2-.6c.1-1.1.1-2.3.1-3.6s0-2.6-.1-4a25.9 25.9 0 0 0-.6-3.9 11.4 11.4 0 0 0-1.4-3.4 3.3 3.3 0 0 0-1.4 1.8 21.9 21.9 0 0 0-.8 2.7c-.2 1-.2 1.9-.4 2.9s-.9 1.7-.9 2.3v7.6c0 2.8-.2 5.6-.1 8.2s.2 5.4.6 8.1l.4.3.8.6.8.7a.9.9 0 0 1 .3.6c0 .2-.3.5-.8.8l-1.8.9-2 .8-1.3.4h-.2l-4.7-2.6a.5.5 0 0 1-.2-.5v-.6a22.1 22.1 0 0 1 0-3 21.5 21.5 0 0 0 .1-3 26 26 0 0 0-.3-3.8c-.2-1.2-.4-2.5-.6-3.7s-.4-2.5-.6-3.7a29.5 29.5 0 0 1-.3-3.9c0-1.2 0-2.3.1-3.3s.2-1.9.3-2.8l.5-2.8.7-3.2a1.4 1.4 0 0 0 0-.7 4.1 4.1 0 0 1-.1-.7l-1.9.2-1.8.5-1.9.6-1.9.5-1.3.2h-2l-1.1-.2h-1.8c-1.8 0-3.5.1-5.2 0s-3.4-.2-5.2-.2H121a4.1 4.1 0 0 0-2.3.8v5.2c0 1.7-.1 3.4-.2 5.1l-.3 5.1c-.1 1.7-.1 3.4-.1 5.1v5c0 .5.7 1.1 1.1 1.7l1.4 1.7 1.2 1.7a3.4 3.4 0 0 1 .5 1.8v.4a9.1 9.1 0 0 1-4 .4c.1.5 0 .7-.2.8h-2.7l-2.2-.2a4.3 4.3 0 0 1-1.8-.8 2.2 2.2 0 0 1-.8-1.8 6.9 6.9 0 0 1 .1-1.3l.3-1.3c.1-.4.2-.9.3-1.3a6.3 6.3 0 0 0 .1-1.4 25.8 25.8 0 0 0-.3-3.8c-.2-1.2-.4-2.4-.7-3.6s-.5-2.6-.8-3.8a26.8 26.8 0 0 1-.7-3.9h-.4c-.2 0-.4.7-.5.9l-.4.7-.3.5-1.5 2.3-1.4 2.3a16.5 16.5 0 0 0-1.1 2.4 8.4 8.4 0 0 0-.4 2.7 4.3 4.3 0 0 0 .3 1.6l.7 1.5.7 1.2.3.6a.8.8 0 0 1-.4.7l-1 .5-1.3.3H98a2.1 2.1 0 0 1-1.8-1.3 9.4 9.4 0 0 1-.5-1.6l-.5-1.6a5 5 0 0 1-.3-1.6 3.4 3.4 0 0 1 .4-1.5l.9-1.6 1.1-1.6a7.2 7.2 0 0 0 .8-1.4l2.4-5.9 2.4-5.9.5-.7.5-.7.4-.7a1.8 1.8 0 0 0 .2-.8c0-.4-.1-.6-.3-.6H103l-8.9 2.2a2.7 2.7 0 0 1-1.3.5l-1.8.4-1.6.6a1.1 1.1 0 0 0-.7 1.1 1.5 1.5 0 0 0 .3.9l.6.7.8.5.7.6-.4.4-1.3-.8-1.4-.8-1.5-.6-1.5-.2a14.5 14.5 0 0 0-3.8.5l-3.9 1.1-4.1 1.1a17.1 17.1 0 0 1-4.2.5l-3.4-.4L61 177l-5.4-1.7a37.5 37.5 0 0 1-4.9-2.2 15.6 15.6 0 0 1-3.6-2.7 4.2 4.2 0 0 1-1.4-2.9 4.4 4.4 0 0 1 1.1-3.2 6.3 6.3 0 0 1 2.7-1.6 14 14 0 0 1 3.5-.1c1.2 0 2.3.3 3.3.3h3.9a2.6 2.6 0 0 1 1.3-.2h2.3l2.5.3 2 .3 1.9.5 1.8.8 1.8.7a6.1 6.1 0 0 0 2 .3 8.7 8.7 0 0 0 3.9-1.1 30.3 30.3 0 0 0 4.1-2.5l3.9-3.1 3.2-2.7 1.8-1.2 1.8-1.1 1.7-1.2a7.9 7.9 0 0 0 1.5-1.7 37.3 37.3 0 0 0 2.6-4.4 31 31 0 0 1 2.7-4.4 6.9 6.9 0 0 1 1.3-1.3l1.5-1 1.6-.9 1.6-.9 3.6-2.6 3.4-2.9 3.3-3 3.4-2.8a21.3 21.3 0 0 1 3.7-2.2l3.9-1.8 2.5-1.3 2.4-1.3 2.5-1.1a12.4 12.4 0 0 1 2.6-.7l22.2-3.2a10.7 10.7 0 0 0 3.5-1.1 20 20 0 0 0 3.3-2.2 31.8 31.8 0 0 0 3.2-2.9l2.9-3.2 2.6-3.2 2.3-2.8 7.6-8.9.3-.3.5-.5.5-.5.3-.3 2-3.2.2-.2.4-.2.4-.2.2-.2.4-.4.4-.4 1.2-1.7 1.4-2 1.3-1.9 1-1.7a12.7 12.7 0 0 0 .9-2l.7-2.1c.2-.7.5-1.4.8-2.2s1-1.5 1-2.2v-6a5.1 5.1 0 0 0-1.1-3.1 11.5 11.5 0 0 0-2.6-2.6 13 13 0 0 0-3.3-1.8 9.2 9.2 0 0 0-3.2-.7 24.5 24.5 0 0 0-5.8.7 12.1 12.1 0 0 0-5.1 2.6l-1.4 1.4-1.4 1.8-1.7 2-1.8 1.8-1.8 1.3a3.5 3.5 0 0 1-1.8.5 1.7 1.7 0 0 1-1.7-1.6v-.9l.2-.8v-1.2a5.1 5.1 0 0 0-.2-1.7l-.6-1.3-.6-1.2a3.1 3.1 0 0 1-.2-1.2 1.1 1.1 0 0 0 .8-.3l.4-.6.4-.7a1.7 1.7 0 0 1 .8-.6h2.8a1.1 1.1 0 0 0 .9-.4l.7-.7h.4l.2.4.2.4a.5.5 0 0 1 .4-.4l.6-.4 1.1-.6 1.3-.8 1.3-.8 1.1-.6.6-.4 2.1-1.2 1.8-.6 1.9-.2h6.4l1.5.5 1.5.3 1.5.3 1.5.5a14.9 14.9 0 0 1 4.5 3 17 17 0 0 1 3.2 4.2 19.3 19.3 0 0 1 1.7 5 23.8 23.8 0 0 1 .5 5.4v1.5c0 .2.4.4.4.6z"/></svg>