<svg xmlns="http://www.w3.org/2000/svg" width="256" height="256" viewBox="0 0 256 256"><path d="M132.5 152.9c-.3 0-.4.2-.4.6h-.1a.4.4 0 0 0-.5.5c0 .4.2.6.5.6s.4-.2.4-.6h.1c.3 0 .5-.2.5-.5s-.2-.6-.5-.6zm1.4-.8a2.3 2.3 0 0 0-.9.8h.3a2.2 2.2 0 0 0 1.1-.3 2.2 2.2 0 0 0 .8-.8h-.2a2.1 2.1 0 0 0-1.1.3zm3.1-2.5c-.3 0-.4.2-.4.5h-.1c-.3 0-.4.2-.4.6h-.1c-.3 0-.5.2-.5.6s.2.5.5.5.5-.2.5-.5h.1c.3 0 .5-.2.5-.6h.1c.3 0 .5-.2.5-.6s-.4-.5-.7-.5zm23-5.9a14 14 0 0 1-1.3 1.4 1.8 1.8 0 0 0 .8 1l1.1.2a2.1 2.1 0 0 0 1.4-.5 4.7 4.7 0 0 0 1.1-1.2 10.2 10.2 0 0 0 .8-1.5c.2-.5.4-1.2.5-1.2H161c-.2.2-.5 1.2-1 1.8z"/><path d="M128 4a126 126 0 1 0 126 126A126 126 0 0 0 128 4zm94.5 74.7l-1.5.4h-3.7a42.2 42.2 0 0 0-5.2 1.2 15.8 15.8 0 0 0-3.6 1.6 9.2 9.2 0 0 0-2.5 2.2 13.8 13.8 0 0 0-1.7 2.9 35.5 35.5 0 0 0-1.5 3.9l-1.6 5-1.2 3.5c-.4 1.1-.8 2.1-1.2 3.2s-.9 2.1-1.4 3.1l-1.7 3.2a33 33 0 0 1-2.6 4l-2.9 3.6-3.1 3.5c-1.1 1.2-2.1 2.4-3.1 3.8a10.4 10.4 0 0 0-1.4 2.6c-.3.9-.6 1.7-1 2.5a8.3 8.3 0 0 1-1.3 2.2 5.5 5.5 0 0 1-2.5 1.6l-1.3.6-2 .7-2 .6-1.3.4a2.9 2.9 0 0 1 .2 2 1.9 1.9 0 0 1-.9.9l-1.2.6a1.6 1.6 0 0 0-.9 1l-2.2 6.7a2.7 2.7 0 0 1-1 1.5 5.8 5.8 0 0 1-1.8.9 11.2 11.2 0 0 1-2 .2 14.6 14.6 0 0 1-1.8-.1h-.8c-.5 0-.9.2-1.1 0s-.4-.3-.4-.8a.6.6 0 0 1 .1-.4l.2-.3.2-.3a.7.7 0 0 0 .1-.4.5.5 0 0 1 0-.2 23.1 23.1 0 0 0-3.4 1.6l-3.3 2-3.3 2.2-3.3 2-.9.4-1.2.6-1 .8a1.5 1.5 0 0 0-.4 1v.3a1.6 1.6 0 0 1 0 .2l1.8 1.6 1.9 1.7 2 1.6 2.1 1.2 1.8.7 1.9.5 1.9.6a7.3 7.3 0 0 1 1.7.9 8.2 8.2 0 0 1 1.3 1.4l1.1 1.5 1.1 1.4a6.1 6.1 0 0 0 1.5 1.3l1.7.6 2.1.6a6.2 6.2 0 0 1 1.8 1 2.1 2.1 0 0 1 .8 1.7v.5l-5.6 1.1-1.1.4a2.3 2.3 0 0 1-1.2.3h-.6l-1.1-.6-1.7-1-1.7-1-1-.7-.2-.2-.3-.5-.3-.5-.2-.4-2.2-4.5-1.1-.4-1.8-.7-2.1-.9-2.1-1-1.8-.8-1.1-.6-2.8-1.6a16.1 16.1 0 0 1-2.6-2.1 13.1 13.1 0 0 1-2-2.7 8.1 8.1 0 0 1-1-3.1l-.6.2-.6.3-.9.6-1.7 1.2-2.1 1.4-2.1 1.3-1.7 1.1-.9.5-5.9 3.5a23 23 0 0 0-4.5 3.4 17.1 17.1 0 0 0-3.6 4.4c-.9 1.7-.7 3.9-2.4 6.6v.2a3.4 3.4 0 0 1 0 .4v.9a9.9 9.9 0 0 0 1.1 4.4 7.8 7.8 0 0 0 2.1 2.5 8.3 8.3 0 0 0 2.6 1.4l2.5 1a5.7 5.7 0 0 1 1.9 1 5 5 0 0 1 .8 2h-13.6l-.2-.4c-.1-.2-.2-.1-.4-.2h-.5l-.6-.3a2.9 2.9 0 0 1-1.2-1.5 8.7 8.7 0 0 1-.5-2.1 15.7 15.7 0 0 1 .2-2.3c0-.8.3-1.4.3-2v-1.4a6.9 6.9 0 0 1 .3-1.7c.2-.8.3-1.7.6-2.7s.5-2 .8-3.1l.8-3.1.7-2.6.4-1.7a15.1 15.1 0 0 1 .7-2 13.1 13.1 0 0 1 1-1.9 14.2 14.2 0 0 0 4.5-2.5 27.3 27.3 0 0 0 3.2-3.3l2.9-3.4a15.3 15.3 0 0 1 3.4-3.1l1.4-.7 2-.8 2.3-1 2.1-1.1a7.9 7.9 0 0 0 1.6-1.3 2.3 2.3 0 0 0 .6-1.5V144a1.8 1.8 0 0 0-.6-1.2l-.8-.3-1.2-.5-1.2-.6-.8-.3a10.2 10.2 0 0 1-2-1.2l-2.6-1.9c-.9-.7-1.7-1-2.5-1.5a3.1 3.1 0 0 0-1.7-.6h-7.8c-5.9 0-11.8-.1-17.5.1s-11.6.2-17.5.2c-4.4 0-8.6-.1-12.8-.4a107.9 107.9 0 0 1-12.3-1.4 85.1 85.1 0 0 1-11.9-2.9 68.9 68.9 0 0 1-11.7-5l-1.4-.7-1.6-1a5.9 5.9 0 0 1-1.3-1.3 2.5 2.5 0 0 1-.5-1.6 6.9 6.9 0 0 1 2.1.4l2.4.9 2.2 1 1.5.6 4.6 1.6 5 1.4 5.1 1a33.4 33.4 0 0 0 4.8.3H73l2.5-.3 3.3-.5 3.6-.6 3.4-.6 2.6-.6 6.8-1.3 7.3-1.6c2.4-.6 4.8-1.3 7.2-2.1a47.3 47.3 0 0 0 6.6-2.8l3.8-1.8 3.8-1.6 3.9-1.3a31.7 31.7 0 0 1 4.2-.9h4.5l1-.2 1.9-.3 3.3-.7 4-.9 4-.9c1.2-.3 2.4-.9 3.3-1.1s1.6-.7 1.9-.7h6.5c2.7 0 5.3.5 7.9.7s5.1.5 7.8.5a10 10 0 0 0 5-1.2 18.3 18.3 0 0 0 4.5-3.5 32.6 32.6 0 0 0 3.9-4.9 64 64 0 0 0 3.2-5.6c1-1.9 1.8-3.7 2.5-5.5s1.3-3.4 1.8-4.8.8-2.3 1.1-3.4l1-3.1a15.7 15.7 0 0 1 1.2-2.6 7.2 7.2 0 0 1 1.8-2 7.9 7.9 0 0 1 2.6-1.6 12.3 12.3 0 0 1 3.8-.8h3c.8 1.6 1.7.9 3 1.3a37.1 37.1 0 0 1 3.5 1.5 15.1 15.1 0 0 1 3 1.8 2.8 2.8 0 0 1 1.2 2.2 2.1 2.1 0 0 1-.4 1.4 3.1 3.1 0 0 1-1.3 0z"/></svg>