<svg xmlns="http://www.w3.org/2000/svg" width="256" height="256" viewBox="0 0 256 256"><path d="M128 2a126 126 0 1 0 126 126A126 126 0 0 0 128 2zm109 115h-7.3c-3 0-6-.1-9.1-.4l-9-1-9-1c-3-.3-6-.4-9.1-.4a133.9 133.9 0 0 0-16.1 1 73 73 0 0 0-15.7 3.7l-30.3 10.9a2.4 2.4 0 0 0-1.2 1.5 20.2 20.2 0 0 0-.8 2.7l-.6 2.8a6.9 6.9 0 0 1-.6 1.9 3.1 3.1 0 0 0 1.4 1.3l2.4 1.2 2.9 1.2a18 18 0 0 1 2.7 1.4 8.4 8.4 0 0 1 2.1 1.9 3.8 3.8 0 0 1 .8 2.4 1.6 1.6 0 0 1-.5 1.2 4.9 4.9 0 0 1-1.2.9l-1.6.7-1.6.8a4.7 4.7 0 0 0-1.2 1 2.3 2.3 0 0 0-.5 1.5 3.7 3.7 0 0 0 .8 2.5 7.8 7.8 0 0 0 1.9 1.6l2.4 1.3a7.4 7.4 0 0 1 2.1 1.7 17.2 17.2 0 0 1 2 3.4 23.4 23.4 0 0 1 1.3 3.6 34.8 34.8 0 0 1 .8 3.8c.2 1.3.1 2.6.3 3.9l1.3 1.3v7.1h.8l1 .2 1 .2.6.2c0 .4.1.7.1.8a6.6 6.6 0 0 1-.1 1 7 7 0 0 1-.4 1.2 3.2 3.2 0 0 1-.6.9 1 1 0 0 1-.9.3H143c-.2 0-.5-.5-1-.8l-1.5-.9-1.5-.8c-.5-.3-.9-.9-1.2-.9h-6.1a4.7 4.7 0 0 1 .6-2.9 4.3 4.3 0 0 1 1.6-1.5 7 7 0 0 1 2.1-.6l2.1-.3a5 5 0 0 0 1.6-.6 1.5 1.5 0 0 0 .6-1.4 2.7 2.7 0 0 0 0-.3v-.2l-.8-1.8-1.3-2.4a26.5 26.5 0 0 0-1.5-2.4 9.3 9.3 0 0 0-1.5-1.8l-1.3-.8-1.8-.9-1.7-1.1a2.1 2.1 0 0 1-1-1.1 22.7 22.7 0 0 1-.9-2.9 21.3 21.3 0 0 0-1.1-3.2 7.9 7.9 0 0 0-1.7-2.6 3.9 3.9 0 0 0-2.9-1 23.2 23.2 0 0 0-6 .8 26.4 26.4 0 0 0-5.7 2.2 25.8 25.8 0 0 0-4.9 3.4 22.2 22.2 0 0 0-3.9 4.5l-.3.2h-.3l-.2-.3-.2-.6-.2-.6v-.3h-.3a1.4 1.4 0 0 0-1.1.5 6.6 6.6 0 0 0-.9 1.2l-.8 1.3a3.7 3.7 0 0 1-.8 1 4.3 4.3 0 0 1-.6-1.6 14.9 14.9 0 0 1-.1-1.6 10.3 10.3 0 0 1 .4-2.9l.9-2.8c.3-.9.6-1.6.9-2.5a19.5 19.5 0 0 0 .4-2.7h-4.8c0-1.6.2-1.8.6-2.4a5.8 5.8 0 0 1 1.6-1.6 7.1 7.1 0 0 1 2.1-.9l2.1-.3 3 .2 2.9.5 2.9.5 2.9.2h2.3a2.5 2.5 0 0 0-1.7-1.3l-2.5-.4-2.7-.2c-.9 0-1.6.1-2.2-.2l-3.9-2.2h-.3a13.4 13.4 0 0 0-3.1 0 13.1 13.1 0 0 1-3.1.2 7.3 7.3 0 0 1-3-.7l-2.6-1.4-2.6-1.8a5.1 5.1 0 0 0-2.9-.6v6h1.6l1-.3.9-.5c.3-.2.4-.4.9-.6l.6-.2v2.7l2-.7c0 .1.2.3.2.5s.1.4.1.5a5.5 5.5 0 0 1-1.3 3.8 21.6 21.6 0 0 1-3.2 2.9 22.5 22.5 0 0 0-4.6-1.2l-4.7-.7v-7.7l-1.7.5-2 1A12.6 12.6 0 0 0 72 150c-.5.4-.9.8-.9 1.2v6.8a10.2 10.2 0 0 0 2.9-.3l1.8-.6 1.2-.6a2.6 2.6 0 0 1 1.2-.3h.3l.3.7.5 1.2.4 1.3a4.2 4.2 0 0 1 .2 1 5.1 5.1 0 0 1-.4 1.9 7.1 7.1 0 0 1-1.1 1.8 5.7 5.7 0 0 1-1.5 1.3 3.4 3.4 0 0 1-1.8.5H74l-3-.5-3.6-.7a11.9 11.9 0 0 1-3.2-1.2 2.5 2.5 0 0 1-1.4-2.1v-11.7c0-.1.4-.4.9-.8l1.9-1.6 2.4-2.2a25.9 25.9 0 0 0 2.4-2.5 20.3 20.3 0 0 0 1.8-2.6 5.4 5.4 0 0 0 .7-2.6 3.8 3.8 0 0 0-1.2-2.7 11.7 11.7 0 0 0-2.8-2l-3.2-1.4-2.5-.9-1.3-9c-.1-.8-.3-1.7-.6-2.7a11.7 11.7 0 0 0-1.1-2.7 7.1 7.1 0 0 0-1.8-2.1 4.1 4.1 0 0 0-2.6-.9 12.3 12.3 0 0 0-3.6.5A14.7 14.7 0 0 0 49 115l-1.6 1-2.5 1.5-2.9 1.7-2.9 1.7-2.5 1.6c-.8.4-1.3 1.1-1.6 1.1h-1l-1.7-.2-2.3-.4a3.4 3.4 0 0 1-1.4-.8c-.5-.3-.3-.8-.3-1.4v-1.9c0-.6-.2-.9 0-.9h1.6a1.1 1.1 0 0 1 0-.4l.2-.8.2-.9a.8.8 0 0 0 0-.5 2.4 2.4 0 0 0-.8-.8l-.9-.5-.7-.7a2 2 0 0 1-.3-1.2 3.2 3.2 0 0 1 .2-1.2 4.8 4.8 0 0 1 .7-1.2c.3-.4.2-.6.6-.9l.8-.3v.8c0 .5.4 1 .6 1.5a1.2 1.2 0 0 0 1.2.7 1.6 1.6 0 0 0 1.1-.5 5.2 5.2 0 0 0 .9-1.1 10.3 10.3 0 0 0 .6-1.6c.1-.4.3.3.3-1.4H22.5a1.9 1.9 0 0 1-.9-.5l-1-.7-.9-.8a1.4 1.4 0 0 1-.4-1 4.5 4.5 0 0 1 1.1-3.2 7.4 7.4 0 0 1 2.6-1.5 16.8 16.8 0 0 1 3.2-1l2.8-.8 2.2-.9 3.3-1.6 3.3-1.6a10 10 0 0 1 2.2-1.1h13.4a7.3 7.3 0 0 1 3.8 1 13.2 13.2 0 0 1 3.1 2.5 26.2 26.2 0 0 1 2.5 3.3l2.3 3.3a16.7 16.7 0 0 0 2.3 2.5 3.6 3.6 0 0 0 2.5 1 .8.8 0 0 0 .8-.4.9.9 0 0 1 .8-.4 3.8 3.8 0 0 1 1.5.3l1.5.7 1.5.7a3.9 3.9 0 0 0 1.5.3l4.1-.2 4.1-.4 4.1-.5 4.1-.2a64 64 0 0 1 7.2.4 38.5 38.5 0 0 1 7.2 1.6l5 2 5.1 2.2a45.6 45.6 0 0 0 5.2 1.7 21.2 21.2 0 0 0 5.4.7h2.6l12.8-2.7c4.2-.9 8.5-1.6 12.7-2.3s8.5-1.2 12.8-1.5 8.6-.6 13-.6h8.8a40.4 40.4 0 0 1 5 .9l36.1 7.2h11.6c-.8 0-1.8 1-3.1 1.3a18.2 18.2 0 0 1-4.3.3z"/></svg>